<?xml version="1.0" encoding="UTF-8" standalone="no"?>
<svg width="100%" height="100%" viewBox="0 0 1000 1000" version="1.1" xmlns="http://www.w3.org/2000/svg" style="fill-rule:evenodd;clip-rule:evenodd;stroke-linecap:round;stroke-linejoin:round;stroke-miterlimit:1.5;">
    <g id="Letter-and-Rocket" transform="matrix(2.05598,0,0,2.01179,-528.393,-516.032)">
        <path d="M500.663,282.128L311.923,281.357L312.352,628.792L334.684,615.05L334.684,304.978L501.171,305.315C501.171,305.315 554.112,304.881 604.089,338.086C644.669,365.048 659.473,392.185 662.604,396.6C670.011,407.046 691.896,444.244 694.92,491.519C697.943,538.794 684.75,565.73 681.727,578.099C678.703,590.467 647.095,637.743 637.75,645.439C628.405,653.135 602.548,676.746 580.03,685.018C553.094,694.913 543.749,699.86 521.76,702.609C499.772,705.357 435.181,705.357 435.181,705.357L455.795,629.497L401.099,728.72L502.246,728.17C502.246,728.17 575.55,732.988 646.27,669.626C693.82,627.023 709.487,572.877 711.686,563.532C713.885,554.186 726.803,510.209 712.236,452.215C697.668,394.22 665.51,356.29 644.071,339.249C622.633,322.208 588.408,287.4 500.663,282.128Z" style="fill:white;"/>
        <path d="M314.964,728.261L434.142,607.545L446.016,618.979L373.454,728.261L314.964,728.261Z" style="fill:white;"/>
        <path d="M420.949,595.231L281.322,728.261L304.19,669.552L420.949,595.231Z" style="fill:white;"/>
        <path d="M478.274,682.639L476.29,619.324L428.267,575.523L361.774,578.514L390.447,547.378L390.664,360.971C390.664,360.971 437.617,360.238 503.612,361.401C568.138,362.538 604.577,410.068 613.125,421.526C633.31,448.582 652.636,500.976 632.881,552.082C597.427,643.8 514.779,647.852 514.779,647.852L478.274,682.639ZM413.485,522.893L426.884,505.371L467.425,505.715L439.596,555.876C439.596,555.876 469.923,556.051 479.83,566.408C489.737,576.766 493.79,604.911 493.79,605.924C493.79,606.937 541.975,573.276 541.975,573.276L544.902,613.017L540.174,618.758C540.174,618.758 567.306,605.924 579.352,592.527C591.398,579.13 600.967,567.872 607.385,552.448C613.802,537.025 615.49,524.303 616.278,515.634C617.067,506.966 614.027,479.608 614.027,479.608C611.191,512.514 600.125,540.482 582.279,564.382L565.617,548.032C565.617,548.032 587.77,519.18 590.948,481.159C591.502,474.525 590.385,448.377 590.385,448.377L565.955,448.49C565.955,448.49 549.068,448.04 522.949,459.748C496.83,471.456 490.976,481.364 490.976,481.364L473.075,464.476C473.075,464.476 501.891,441.769 519.346,435.768C537.359,429.576 551.432,425.861 561.564,425.298C573.817,424.617 584.868,424.51 584.868,424.51C584.868,424.51 571.359,409.087 552.895,399.292C534.432,389.497 526.767,387.268 505.274,384.769C490.751,383.08 413.858,384.094 413.858,384.094L413.485,522.893Z" style="fill:white;"/>
    </g>
</svg>
